<mxfile host="Electron" agent="Mozilla/5.0 (Windows NT 10.0; Win64; x64) AppleWebKit/537.36 (KHTML, like Gecko) draw.io/26.1.1 Chrome/132.0.6834.210 Electron/34.3.3 Safari/537.36" version="26.1.1">
  <diagram name="Page-1" id="2YBvvXClWsGukQMizWep">
    <mxGraphModel dx="1562" dy="909" grid="1" gridSize="10" guides="1" tooltips="1" connect="1" arrows="1" fold="1" page="1" pageScale="1" pageWidth="3300" pageHeight="4681" math="0" shadow="0" adaptiveColors="auto">
      <root>
        <object label="" id="0">
          <mxCell />
        </object>
        <mxCell id="1" parent="0" />
        <mxCell id="rZKq1eygH6wTUlgf6CM3-2" value="Lifeline1" style="shape=umlLifeline;perimeter=lifelinePerimeter;whiteSpace=wrap;html=1;container=1;dropTarget=0;collapsible=0;recursiveResize=0;outlineConnect=0;portConstraint=eastwest;newEdgeStyle={&quot;edgeStyle&quot;:&quot;elbowEdgeStyle&quot;,&quot;elbow&quot;:&quot;vertical&quot;,&quot;curved&quot;:0,&quot;rounded&quot;:0};size=25;movable=1;resizable=1;rotatable=1;deletable=1;editable=1;locked=0;connectable=1;" vertex="1" parent="1">
          <mxGeometry x="1295" y="420" width="100" height="720" as="geometry" />
        </mxCell>
        <mxCell id="rZKq1eygH6wTUlgf6CM3-3" value="" style="html=1;points=[];perimeter=orthogonalPerimeter;outlineConnect=0;targetShapes=umlLifeline;portConstraint=eastwest;newEdgeStyle={&quot;edgeStyle&quot;:&quot;elbowEdgeStyle&quot;,&quot;elbow&quot;:&quot;vertical&quot;,&quot;curved&quot;:0,&quot;rounded&quot;:0};" vertex="1" parent="rZKq1eygH6wTUlgf6CM3-2">
          <mxGeometry x="46.25" y="660" width="7.5" height="60" as="geometry" />
        </mxCell>
        <mxCell id="j0vUlDNv34l6zFGlq_RC-67" value="Lifeline1" style="shape=umlLifeline;perimeter=lifelinePerimeter;whiteSpace=wrap;html=1;container=1;dropTarget=0;collapsible=0;recursiveResize=0;outlineConnect=0;portConstraint=eastwest;newEdgeStyle={&quot;edgeStyle&quot;:&quot;elbowEdgeStyle&quot;,&quot;elbow&quot;:&quot;vertical&quot;,&quot;curved&quot;:0,&quot;rounded&quot;:0};size=25;movable=1;resizable=1;rotatable=1;deletable=1;editable=1;locked=0;connectable=1;" parent="1" vertex="1">
          <mxGeometry x="1140" y="420" width="100" height="700" as="geometry" />
        </mxCell>
        <mxCell id="j0vUlDNv34l6zFGlq_RC-68" value="" style="html=1;points=[];perimeter=orthogonalPerimeter;outlineConnect=0;targetShapes=umlLifeline;portConstraint=eastwest;newEdgeStyle={&quot;edgeStyle&quot;:&quot;elbowEdgeStyle&quot;,&quot;elbow&quot;:&quot;vertical&quot;,&quot;curved&quot;:0,&quot;rounded&quot;:0};" parent="j0vUlDNv34l6zFGlq_RC-67" vertex="1">
          <mxGeometry x="45" y="570" width="10" height="90" as="geometry" />
        </mxCell>
        <mxCell id="j0vUlDNv34l6zFGlq_RC-26" value="Lifeline1" style="shape=umlLifeline;perimeter=lifelinePerimeter;whiteSpace=wrap;html=1;container=1;dropTarget=0;collapsible=0;recursiveResize=0;outlineConnect=0;portConstraint=eastwest;newEdgeStyle={&quot;edgeStyle&quot;:&quot;elbowEdgeStyle&quot;,&quot;elbow&quot;:&quot;vertical&quot;,&quot;curved&quot;:0,&quot;rounded&quot;:0};size=25;movable=1;resizable=1;rotatable=1;deletable=1;editable=1;locked=0;connectable=1;" parent="1" vertex="1">
          <mxGeometry x="975" y="420" width="100" height="700" as="geometry" />
        </mxCell>
        <mxCell id="j0vUlDNv34l6zFGlq_RC-10" value="" style="html=1;points=[];perimeter=orthogonalPerimeter;outlineConnect=0;targetShapes=umlLifeline;portConstraint=eastwest;newEdgeStyle={&quot;edgeStyle&quot;:&quot;elbowEdgeStyle&quot;,&quot;elbow&quot;:&quot;vertical&quot;,&quot;curved&quot;:0,&quot;rounded&quot;:0};" parent="j0vUlDNv34l6zFGlq_RC-26" vertex="1">
          <mxGeometry x="45" y="460" width="10" height="110" as="geometry" />
        </mxCell>
        <mxCell id="j0vUlDNv34l6zFGlq_RC-25" value="Lifeline1" style="shape=umlLifeline;perimeter=lifelinePerimeter;whiteSpace=wrap;html=1;container=1;dropTarget=0;collapsible=0;recursiveResize=0;outlineConnect=0;portConstraint=eastwest;newEdgeStyle={&quot;edgeStyle&quot;:&quot;elbowEdgeStyle&quot;,&quot;elbow&quot;:&quot;vertical&quot;,&quot;curved&quot;:0,&quot;rounded&quot;:0};size=25;movable=1;resizable=1;rotatable=1;deletable=1;editable=1;locked=0;connectable=1;" parent="1" vertex="1">
          <mxGeometry x="815" y="420" width="100" height="700" as="geometry" />
        </mxCell>
        <mxCell id="j0vUlDNv34l6zFGlq_RC-9" value="" style="html=1;points=[];perimeter=orthogonalPerimeter;outlineConnect=0;targetShapes=umlLifeline;portConstraint=eastwest;newEdgeStyle={&quot;edgeStyle&quot;:&quot;elbowEdgeStyle&quot;,&quot;elbow&quot;:&quot;vertical&quot;,&quot;curved&quot;:0,&quot;rounded&quot;:0};" parent="j0vUlDNv34l6zFGlq_RC-25" vertex="1">
          <mxGeometry x="45" y="330" width="10" height="130" as="geometry" />
        </mxCell>
        <mxCell id="j0vUlDNv34l6zFGlq_RC-65" style="edgeStyle=elbowEdgeStyle;rounded=0;orthogonalLoop=1;jettySize=auto;html=1;elbow=vertical;curved=0;" parent="j0vUlDNv34l6zFGlq_RC-25" source="j0vUlDNv34l6zFGlq_RC-9" target="j0vUlDNv34l6zFGlq_RC-9" edge="1">
          <mxGeometry relative="1" as="geometry">
            <Array as="points">
              <mxPoint x="155" y="400" />
            </Array>
          </mxGeometry>
        </mxCell>
        <mxCell id="j0vUlDNv34l6zFGlq_RC-24" value="Lifeline1" style="shape=umlLifeline;perimeter=lifelinePerimeter;whiteSpace=wrap;html=1;container=1;dropTarget=0;collapsible=0;recursiveResize=0;outlineConnect=0;portConstraint=eastwest;newEdgeStyle={&quot;edgeStyle&quot;:&quot;elbowEdgeStyle&quot;,&quot;elbow&quot;:&quot;vertical&quot;,&quot;curved&quot;:0,&quot;rounded&quot;:0};size=25;movable=1;resizable=1;rotatable=1;deletable=1;editable=1;locked=0;connectable=1;" parent="1" vertex="1">
          <mxGeometry x="655" y="420" width="100" height="700" as="geometry" />
        </mxCell>
        <mxCell id="j0vUlDNv34l6zFGlq_RC-8" value="" style="html=1;points=[];perimeter=orthogonalPerimeter;outlineConnect=0;targetShapes=umlLifeline;portConstraint=eastwest;newEdgeStyle={&quot;edgeStyle&quot;:&quot;elbowEdgeStyle&quot;,&quot;elbow&quot;:&quot;vertical&quot;,&quot;curved&quot;:0,&quot;rounded&quot;:0};" parent="j0vUlDNv34l6zFGlq_RC-24" vertex="1">
          <mxGeometry x="45" y="200" width="10" height="130" as="geometry" />
        </mxCell>
        <mxCell id="j0vUlDNv34l6zFGlq_RC-22" value="Lifeline1" style="shape=umlLifeline;perimeter=lifelinePerimeter;whiteSpace=wrap;html=1;container=1;dropTarget=0;collapsible=0;recursiveResize=0;outlineConnect=0;portConstraint=eastwest;newEdgeStyle={&quot;edgeStyle&quot;:&quot;elbowEdgeStyle&quot;,&quot;elbow&quot;:&quot;vertical&quot;,&quot;curved&quot;:0,&quot;rounded&quot;:0};size=25;movable=1;resizable=1;rotatable=1;deletable=1;editable=1;locked=0;connectable=1;" parent="1" vertex="1">
          <mxGeometry x="495" y="420" width="100" height="700" as="geometry" />
        </mxCell>
        <mxCell id="j0vUlDNv34l6zFGlq_RC-7" value="" style="html=1;points=[];perimeter=orthogonalPerimeter;outlineConnect=0;targetShapes=umlLifeline;portConstraint=eastwest;newEdgeStyle={&quot;edgeStyle&quot;:&quot;elbowEdgeStyle&quot;,&quot;elbow&quot;:&quot;vertical&quot;,&quot;curved&quot;:0,&quot;rounded&quot;:0};" parent="j0vUlDNv34l6zFGlq_RC-22" vertex="1">
          <mxGeometry x="45" y="100" width="10" height="100" as="geometry" />
        </mxCell>
        <mxCell id="j0vUlDNv34l6zFGlq_RC-15" value="Lifeline1" style="shape=umlLifeline;perimeter=lifelinePerimeter;whiteSpace=wrap;html=1;container=1;dropTarget=0;collapsible=0;recursiveResize=0;outlineConnect=0;portConstraint=eastwest;newEdgeStyle={&quot;edgeStyle&quot;:&quot;elbowEdgeStyle&quot;,&quot;elbow&quot;:&quot;vertical&quot;,&quot;curved&quot;:0,&quot;rounded&quot;:0};size=25;movable=1;resizable=1;rotatable=1;deletable=1;editable=1;locked=0;connectable=1;" parent="1" vertex="1">
          <mxGeometry x="335" y="410" width="100" height="700" as="geometry" />
        </mxCell>
        <mxCell id="j0vUlDNv34l6zFGlq_RC-59" value="" style="html=1;points=[];perimeter=orthogonalPerimeter;outlineConnect=0;targetShapes=umlLifeline;portConstraint=eastwest;newEdgeStyle={&quot;edgeStyle&quot;:&quot;elbowEdgeStyle&quot;,&quot;elbow&quot;:&quot;vertical&quot;,&quot;curved&quot;:0,&quot;rounded&quot;:0};" parent="j0vUlDNv34l6zFGlq_RC-15" vertex="1">
          <mxGeometry x="45" y="250" width="10" height="60" as="geometry" />
        </mxCell>
        <mxCell id="PmUTT5JeKS3ZaEgDKsFY-1" value="" style="shape=umlActor;verticalLabelPosition=bottom;verticalAlign=top;html=1;outlineConnect=0;" parent="1" vertex="1">
          <mxGeometry x="230" y="390" width="30" height="60" as="geometry" />
        </mxCell>
        <mxCell id="PmUTT5JeKS3ZaEgDKsFY-2" value="&lt;font style=&quot;font-size: 10px;&quot;&gt;Login/Register_Screen&lt;/font&gt;" style="html=1;whiteSpace=wrap;fillColor=#dae8fc;strokeColor=#6c8ebf;" parent="1" vertex="1">
          <mxGeometry x="330" y="410" width="110" height="40" as="geometry" />
        </mxCell>
        <mxCell id="j0vUlDNv34l6zFGlq_RC-1" value="&lt;font style=&quot;font-size: 10px;&quot;&gt;Register_Screen&lt;/font&gt;" style="html=1;whiteSpace=wrap;fillColor=#dae8fc;strokeColor=#6c8ebf;" parent="1" vertex="1">
          <mxGeometry x="490" y="410" width="110" height="40" as="geometry" />
        </mxCell>
        <mxCell id="j0vUlDNv34l6zFGlq_RC-3" value="&lt;font style=&quot;font-size: 10px;&quot;&gt;Phone_Number_Screen&lt;/font&gt;" style="html=1;whiteSpace=wrap;fillColor=#dae8fc;strokeColor=#6c8ebf;" parent="1" vertex="1">
          <mxGeometry x="650" y="410" width="110" height="40" as="geometry" />
        </mxCell>
        <mxCell id="j0vUlDNv34l6zFGlq_RC-4" value="Username_Screen" style="html=1;whiteSpace=wrap;fillColor=#dae8fc;strokeColor=#6c8ebf;" parent="1" vertex="1">
          <mxGeometry x="810" y="410" width="110" height="40" as="geometry" />
        </mxCell>
        <mxCell id="j0vUlDNv34l6zFGlq_RC-5" value="&lt;font style=&quot;font-size: 10px;&quot;&gt;Avatar_Select_Screen&lt;/font&gt;" style="html=1;whiteSpace=wrap;fillColor=#dae8fc;strokeColor=#6c8ebf;" parent="1" vertex="1">
          <mxGeometry x="970" y="410" width="110" height="40" as="geometry" />
        </mxCell>
        <mxCell id="j0vUlDNv34l6zFGlq_RC-6" value="" style="html=1;points=[];perimeter=orthogonalPerimeter;outlineConnect=0;targetShapes=umlLifeline;portConstraint=eastwest;newEdgeStyle={&quot;edgeStyle&quot;:&quot;elbowEdgeStyle&quot;,&quot;elbow&quot;:&quot;vertical&quot;,&quot;curved&quot;:0,&quot;rounded&quot;:0};" parent="1" vertex="1">
          <mxGeometry x="380" y="460" width="10" height="60" as="geometry" />
        </mxCell>
        <mxCell id="j0vUlDNv34l6zFGlq_RC-16" value="" style="html=1;points=[];perimeter=orthogonalPerimeter;outlineConnect=0;targetShapes=umlLifeline;portConstraint=eastwest;newEdgeStyle={&quot;edgeStyle&quot;:&quot;elbowEdgeStyle&quot;,&quot;elbow&quot;:&quot;vertical&quot;,&quot;curved&quot;:0,&quot;rounded&quot;:0};" parent="1" vertex="1">
          <mxGeometry x="240" y="460" width="10" height="660" as="geometry" />
        </mxCell>
        <mxCell id="j0vUlDNv34l6zFGlq_RC-21" value="User" style="text;html=1;align=center;verticalAlign=middle;whiteSpace=wrap;rounded=0;" parent="1" vertex="1">
          <mxGeometry x="215" y="360" width="60" height="30" as="geometry" />
        </mxCell>
        <mxCell id="j0vUlDNv34l6zFGlq_RC-28" value="&lt;font style=&quot;font-size: 8px;&quot;&gt;continue_button()&lt;/font&gt;" style="html=1;verticalAlign=bottom;endArrow=block;curved=0;rounded=0;fontSize=10;startSize=8;endSize=8;" parent="1" edge="1">
          <mxGeometry width="80" relative="1" as="geometry">
            <mxPoint x="250" y="490" as="sourcePoint" />
            <mxPoint x="380" y="490" as="targetPoint" />
          </mxGeometry>
        </mxCell>
        <mxCell id="j0vUlDNv34l6zFGlq_RC-29" value="register_button()" style="html=1;verticalAlign=bottom;endArrow=block;curved=0;rounded=0;" parent="1" edge="1">
          <mxGeometry width="80" relative="1" as="geometry">
            <mxPoint x="390" y="520" as="sourcePoint" />
            <mxPoint x="540" y="520" as="targetPoint" />
          </mxGeometry>
        </mxCell>
        <mxCell id="j0vUlDNv34l6zFGlq_RC-30" value="get_number()" style="html=1;verticalAlign=bottom;endArrow=block;curved=0;rounded=0;" parent="1" edge="1">
          <mxGeometry width="80" relative="1" as="geometry">
            <mxPoint x="550" y="620" as="sourcePoint" />
            <mxPoint x="700" y="620" as="targetPoint" />
          </mxGeometry>
        </mxCell>
        <mxCell id="j0vUlDNv34l6zFGlq_RC-31" value="get_username()" style="html=1;verticalAlign=bottom;endArrow=block;curved=0;rounded=0;" parent="1" edge="1">
          <mxGeometry width="80" relative="1" as="geometry">
            <mxPoint x="710" y="750" as="sourcePoint" />
            <mxPoint x="860" y="750" as="targetPoint" />
          </mxGeometry>
        </mxCell>
        <mxCell id="j0vUlDNv34l6zFGlq_RC-32" value="get_avatar_button()" style="html=1;verticalAlign=bottom;endArrow=block;curved=0;rounded=0;" parent="1" edge="1">
          <mxGeometry width="80" relative="1" as="geometry">
            <mxPoint x="870" y="880" as="sourcePoint" />
            <mxPoint x="1024.499999999999" y="880" as="targetPoint" />
          </mxGeometry>
        </mxCell>
        <mxCell id="j0vUlDNv34l6zFGlq_RC-33" value="Alternative" style="shape=umlFrame;whiteSpace=wrap;html=1;pointerEvents=0;recursiveResize=0;container=1;collapsible=0;width=170;fillColor=#f8cecc;strokeColor=#b85450;" parent="1" vertex="1">
          <mxGeometry x="140" y="570" width="1020" height="360" as="geometry" />
        </mxCell>
        <mxCell id="j0vUlDNv34l6zFGlq_RC-56" value="if number already exists" style="text;html=1;align=center;verticalAlign=middle;whiteSpace=wrap;rounded=0;" parent="j0vUlDNv34l6zFGlq_RC-33" vertex="1">
          <mxGeometry x="5" y="50" width="100" height="10" as="geometry" />
        </mxCell>
        <mxCell id="j0vUlDNv34l6zFGlq_RC-62" value="&lt;font style=&quot;font-size: 10px;&quot;&gt;phone_exists_message()&lt;/font&gt;" style="text;html=1;align=center;verticalAlign=middle;whiteSpace=wrap;rounded=0;" parent="j0vUlDNv34l6zFGlq_RC-33" vertex="1">
          <mxGeometry x="280" y="100" width="120" height="10" as="geometry" />
        </mxCell>
        <mxCell id="j0vUlDNv34l6zFGlq_RC-63" value="" style="line;strokeWidth=2;dashed=2;labelPosition=center;verticalLabelPosition=bottom;align=left;verticalAlign=top;spacingLeft=20;spacingTop=15;html=1;whiteSpace=wrap;" parent="j0vUlDNv34l6zFGlq_RC-33" vertex="1">
          <mxGeometry y="220" width="1020" height="10" as="geometry" />
        </mxCell>
        <mxCell id="j0vUlDNv34l6zFGlq_RC-64" value="if username already exists" style="text;html=1;align=center;verticalAlign=middle;whiteSpace=wrap;rounded=0;" parent="j0vUlDNv34l6zFGlq_RC-33" vertex="1">
          <mxGeometry x="10" y="240" width="90" height="35" as="geometry" />
        </mxCell>
        <mxCell id="j0vUlDNv34l6zFGlq_RC-66" value="&lt;font style=&quot;font-size: 10px;&quot;&gt;username_exists_message()&lt;/font&gt;" style="text;html=1;align=center;verticalAlign=middle;whiteSpace=wrap;rounded=0;" parent="j0vUlDNv34l6zFGlq_RC-33" vertex="1">
          <mxGeometry x="760" y="250" width="100" height="20" as="geometry" />
        </mxCell>
        <mxCell id="j0vUlDNv34l6zFGlq_RC-54" value="&lt;font style=&quot;font-size: 8px;&quot;&gt;CreateProfile_Success_Screen&lt;/font&gt;" style="html=1;whiteSpace=wrap;fillColor=#dae8fc;strokeColor=#6c8ebf;" parent="1" vertex="1">
          <mxGeometry x="1130" y="410" width="110" height="40" as="geometry" />
        </mxCell>
        <mxCell id="j0vUlDNv34l6zFGlq_RC-61" style="edgeStyle=elbowEdgeStyle;rounded=0;orthogonalLoop=1;jettySize=auto;html=1;elbow=vertical;curved=0;" parent="1" source="j0vUlDNv34l6zFGlq_RC-8" target="j0vUlDNv34l6zFGlq_RC-59" edge="1">
          <mxGeometry relative="1" as="geometry" />
        </mxCell>
        <mxCell id="j0vUlDNv34l6zFGlq_RC-69" value="&lt;font style=&quot;font-size: 10px;&quot;&gt;createprofile_success_message()&lt;/font&gt;" style="html=1;verticalAlign=bottom;endArrow=block;curved=0;rounded=0;" parent="1" target="j0vUlDNv34l6zFGlq_RC-68" edge="1">
          <mxGeometry width="80" relative="1" as="geometry">
            <mxPoint x="1030" y="990" as="sourcePoint" />
            <mxPoint x="1180" y="990" as="targetPoint" />
          </mxGeometry>
        </mxCell>
        <mxCell id="j0vUlDNv34l6zFGlq_RC-70" value="&lt;font style=&quot;font-size: 6px;&quot;&gt;PS. this button is used in the &quot;welcome to our app&quot; screen&lt;/font&gt;" style="text;html=1;align=center;verticalAlign=middle;whiteSpace=wrap;rounded=0;" parent="1" vertex="1">
          <mxGeometry x="270" y="500" width="80" height="20" as="geometry" />
        </mxCell>
        <mxCell id="rZKq1eygH6wTUlgf6CM3-1" value="Homescreen" style="html=1;whiteSpace=wrap;fillColor=#dae8fc;strokeColor=#6c8ebf;" vertex="1" parent="1">
          <mxGeometry x="1290" y="410" width="110" height="40" as="geometry" />
        </mxCell>
        <mxCell id="rZKq1eygH6wTUlgf6CM3-4" value="&lt;font style=&quot;font-size: 10px;&quot;&gt;homescreen()&lt;/font&gt;" style="html=1;verticalAlign=bottom;endArrow=block;curved=0;rounded=0;" edge="1" parent="1" source="j0vUlDNv34l6zFGlq_RC-68" target="rZKq1eygH6wTUlgf6CM3-3">
          <mxGeometry x="0.0769" y="-20" width="80" relative="1" as="geometry">
            <mxPoint x="1200" y="1080" as="sourcePoint" />
            <mxPoint x="1330" y="1080" as="targetPoint" />
            <mxPoint as="offset" />
          </mxGeometry>
        </mxCell>
      </root>
    </mxGraphModel>
  </diagram>
</mxfile>
